<svg width="17" height="17" viewBox="0 0 17 17" fill="none" xmlns="http://www.w3.org/2000/svg">
<g clip-path="url(#clip0_6_92)">
<path d="M10.7155 2.00907C10.7155 1.83145 10.6449 1.66111 10.5193 1.53551C10.3937 1.40991 10.2234 1.33936 10.0458 1.33936H6.02746C5.84984 1.33936 5.67949 1.40991 5.5539 1.53551C5.4283 1.66111 5.35774 1.83145 5.35774 2.00907V5.35765H2.00916C1.83154 5.35765 1.6612 5.42821 1.5356 5.55381C1.41001 5.6794 1.33945 5.84975 1.33945 6.02737V10.0457C1.33945 10.2233 1.41001 10.3936 1.5356 10.5192C1.6612 10.6448 1.83154 10.7154 2.00916 10.7154H5.35774V14.064C5.35774 14.2416 5.4283 14.4119 5.5539 14.5375C5.67949 14.6631 5.84984 14.7337 6.02746 14.7337H10.0458C10.2234 14.7337 10.3937 14.6631 10.5193 14.5375C10.6449 14.4119 10.7155 14.2416 10.7155 14.064V10.7154H14.064C14.2417 10.7154 14.412 10.6448 14.5376 10.5192C14.6632 10.3936 14.7338 10.2233 14.7338 10.0457V6.02737C14.7338 5.84975 14.6632 5.6794 14.5376 5.55381C14.412 5.42821 14.2417 5.35765 14.064 5.35765H10.7155V2.00907Z" stroke="#FFA629" stroke-width="1.33943" stroke-linecap="round" stroke-linejoin="round"/>
</g>
<defs>
<clipPath id="clip0_6_92">
<rect width="16.0732" height="16.0732" fill="white"/>
</clipPath>
</defs>
</svg>
