<svg width="20" height="20" viewBox="0 0 20 20" fill="none" xmlns="http://www.w3.org/2000/svg">
<path d="M7.77616 17.1894C7.19172 17.1894 6.70468 16.9946 6.31506 16.605C5.92489 16.2143 5.7298 15.727 5.7298 15.1431C5.7298 14.8942 5.71807 14.6858 5.6946 14.5177C5.67114 14.3496 5.61248 14.2192 5.51862 14.1265C5.42585 14.0326 5.29543 13.9687 5.12735 13.9349C4.95928 13.9011 4.75083 13.8839 4.50199 13.8833C3.91755 13.8833 3.43052 13.6937 3.04089 13.3145C2.65072 12.9352 2.45564 12.4534 2.45564 11.8689C2.45564 11.2845 2.65072 10.7974 3.04089 10.4078C3.43106 10.0182 3.9181 9.82311 4.50199 9.82256C4.72136 9.82256 4.92927 9.85039 5.12572 9.90605C5.32217 9.96172 5.48888 10.0452 5.62585 10.1565C5.77318 10.2717 5.94371 10.3292 6.13744 10.3292C6.33116 10.3292 6.4965 10.261 6.63347 10.1246L10.0615 6.69655C10.1979 6.56013 10.2768 6.38687 10.2981 6.17678C10.3194 5.96669 10.2722 5.78306 10.1565 5.6259C10.0555 5.47802 9.97449 5.30858 9.91337 5.11759C9.85225 4.92659 9.82196 4.72141 9.82251 4.50204C9.82251 3.9176 10.0176 3.43057 10.4078 3.04095C10.7974 2.65077 11.2844 2.45569 11.8689 2.45569C12.4533 2.45569 12.9406 2.65077 13.3308 3.04095C13.7209 3.43112 13.9158 3.91815 13.9152 4.50204C13.9152 4.75088 13.9269 4.95933 13.9504 5.12741C13.9739 5.29548 14.0325 5.4259 14.1264 5.51867C14.2192 5.61253 14.3499 5.67119 14.5185 5.69466C14.6871 5.71812 14.8953 5.72985 15.143 5.72985C15.7275 5.72985 16.2148 5.92494 16.6049 6.31511C16.9946 6.70474 17.1894 7.19177 17.1894 7.77621C17.1894 8.36065 16.9946 8.84795 16.6049 9.23812C16.2153 9.6283 15.728 9.82311 15.143 9.82256C14.9237 9.82256 14.7185 9.79228 14.5275 9.7317C14.3365 9.67113 14.1671 9.5901 14.0192 9.4886C13.862 9.38382 13.6836 9.33935 13.4838 9.35518C13.2847 9.371 13.1169 9.44712 12.9804 9.58355L9.5835 12.9805C9.44707 13.1169 9.36822 13.2768 9.34694 13.4602C9.32565 13.6435 9.36249 13.8195 9.45744 13.9881C9.54748 14.1355 9.63097 14.3101 9.70791 14.512C9.78431 14.7133 9.82251 14.9237 9.82251 15.1431C9.82251 15.7275 9.6277 16.2148 9.23807 16.605C8.84735 16.9946 8.36005 17.1894 7.77616 17.1894Z" fill="#FFA629"/>
</svg>
