<svg width="21" height="21" viewBox="0 0 21 21" fill="none" xmlns="http://www.w3.org/2000/svg">
<path d="M13.7813 16.7387C13.055 16.7387 12.4688 16.0037 12.4688 15.0937C12.4688 14.1924 13.055 13.4574 13.7813 13.4574C14.5075 13.4574 15.0938 14.1924 15.0938 15.0937C15.0938 16.0037 14.5075 16.7387 13.7813 16.7387ZM10.5 9.84368C9.41501 9.84368 8.53126 9.10868 8.53126 8.20743C8.53126 7.29743 9.41501 6.56243 10.5 6.56243C11.585 6.56243 12.4688 7.29743 12.4688 8.20743C12.4688 9.10868 11.585 9.84368 10.5 9.84368ZM7.21876 16.7387C6.49251 16.7387 5.90626 16.0037 5.90626 15.0937C5.90626 14.1924 6.49251 13.4574 7.21876 13.4574C7.94501 13.4574 8.53126 14.1924 8.53126 15.0937C8.53126 16.0037 7.94501 16.7387 7.21876 16.7387ZM10.5 7.21868C10.8588 7.21868 11.1563 7.51618 11.1563 7.87493C11.1563 8.23368 10.8588 8.53118 10.5 8.53118C10.1413 8.53118 9.84376 8.23368 9.84376 7.87493C9.84376 7.51618 10.1413 7.21868 10.5 7.21868ZM16.4063 10.4999C16.1263 10.4999 15.855 10.5612 15.61 10.6749C15.19 10.1412 14.6213 9.68618 13.9388 9.33618C14.4375 8.63618 14.735 7.78743 14.735 6.86868V6.81618C15.6888 6.61493 16.4063 5.76618 16.4063 4.74243C16.4063 3.57868 15.4525 2.62493 14.2888 2.62493C13.685 2.62493 13.125 2.87868 12.7575 3.28118C12.0827 2.85229 11.2996 2.62451 10.5 2.62451C9.70041 2.62451 8.91735 2.85229 8.24251 3.28118C7.87501 2.87868 7.31501 2.62493 6.71126 2.62493C5.54751 2.62493 4.59376 3.57868 4.59376 4.74243C4.59376 5.75743 5.31126 6.60618 6.25626 6.81618V6.86868C6.25626 7.78743 6.56251 8.64493 7.05251 9.33618C6.37876 9.68618 5.81001 10.1412 5.39001 10.6749C5.09099 10.5402 4.76295 10.4827 4.43595 10.5077C4.10894 10.5326 3.79342 10.6392 3.51829 10.8177C3.24315 10.9962 3.01721 11.2408 2.86114 11.5293C2.70508 11.8177 2.62389 12.1407 2.62501 12.4687C2.62501 13.5624 3.50001 14.4374 4.59376 14.4374H4.64626C4.61126 14.6474 4.59376 14.8749 4.59376 15.0937C4.59376 16.9049 5.76626 18.3749 7.21876 18.3749C8.10251 18.3749 8.88126 17.8237 9.36251 16.9837C9.73001 17.0362 10.1063 17.0624 10.5 17.0624C10.8938 17.0624 11.27 17.0362 11.6375 16.9837C12.1188 17.8237 12.8975 18.3749 13.7813 18.3749C15.2338 18.3749 16.4063 16.9049 16.4063 15.0937C16.4063 14.8749 16.3888 14.6474 16.3538 14.4374H16.4063C17.5 14.4374 18.375 13.5624 18.375 12.4687C18.375 11.3749 17.5 10.4999 16.4063 10.4999Z" fill="#FFA629"/>
</svg>
