<svg width="38" height="38" viewBox="0 0 38 38" fill="none" xmlns="http://www.w3.org/2000/svg">
<circle cx="19" cy="19" r="19" transform="matrix(-1 0 0 1 38 0)" fill="#FFA629"/>
<path d="M9.29289 19.7071C8.90237 19.3166 8.90237 18.6834 9.29289 18.2929L15.6569 11.9289C16.0474 11.5384 16.6805 11.5384 17.0711 11.9289C17.4616 12.3195 17.4616 12.9526 17.0711 13.3431L11.4142 19L17.0711 24.6569C17.4616 25.0474 17.4616 25.6805 17.0711 26.0711C16.6805 26.4616 16.0474 26.4616 15.6569 26.0711L9.29289 19.7071ZM28 19V20L10 20V19V18L28 18V19Z" fill="white"/>
</svg>
