<svg width="42" height="42" viewBox="0 0 42 42" fill="none" xmlns="http://www.w3.org/2000/svg">
<circle cx="20.6655" cy="20.6655" r="20.6655" transform="matrix(-1 0 0 1 41.3311 0)" fill="#FFA629"/>
<path d="M10.1075 21.4346C9.68275 21.0099 9.68275 20.3212 10.1075 19.8964L17.0293 12.9746C17.4541 12.5499 18.1428 12.5499 18.5675 12.9746C18.9923 13.3994 18.9923 14.088 18.5675 14.5128L12.4148 20.6655L18.5675 26.8183C18.9923 27.243 18.9923 27.9317 18.5675 28.3564C18.1428 28.7812 17.4541 28.7812 17.0293 28.3564L10.1075 21.4346ZM30.4545 20.6655V21.7532L10.8766 21.7532V20.6655V19.5779L30.4545 19.5779V20.6655Z" fill="white"/>
</svg>
